<?xml version="1.0" encoding="UTF-8" standalone="no"?>
<!DOCTYPE svg PUBLIC "-//W3C//DTD SVG 1.1//EN"
 "http://www.w3.org/Graphics/SVG/1.1/DTD/svg11.dtd">
<!-- Generated by graphviz version 2.28.0 (20121206.0835)
 -->
<!-- Title: models_diagram Pages: 1 -->
<svg width="876pt" height="1228pt"
 viewBox="0.00 0.00 876.00 1228.00" xmlns="http://www.w3.org/2000/svg" xmlns:xlink="http://www.w3.org/1999/xlink">
<g id="graph1" class="graph" transform="scale(1 1) rotate(0) translate(4 1224)">
<title>models_diagram</title>
<polygon fill="white" stroke="white" points="-4,5 -4,-1224 873,-1224 873,5 -4,5"/>
<!-- _diagram_info -->
<g id="node1" class="node"><title>_diagram_info</title>
<text text-anchor="start" x="45.2798" y="-1170.2" font-family="Times,serif" font-size="13.00">Models diagram</text>
<text text-anchor="start" x="45.2798" y="-1154.6" font-family="Times,serif" font-size="13.00">Date: Dec 06 2012 &#45; 00:42</text>
<text text-anchor="start" x="45.2798" y="-1139" font-family="Times,serif" font-size="13.00">Generated by RailRoady 1.1.0</text>
<text text-anchor="start" x="45.2798" y="-1123.4" font-family="Times,serif" font-size="13.00">http://railroady.prestonlee.com</text>
</g>
<!-- Comment -->
<g id="node2" class="node"><title>Comment</title>
<polyline fill="none" stroke="black" points="11.5879,-74.4 170.412,-74.4 "/>
<path fill="none" stroke="black" d="M170.412,-74.4C176.412,-74.4 182.412,-80.4 182.412,-86.4"/>
<polyline fill="none" stroke="black" points="182.412,-86.4 182.412,-145.6 "/>
<path fill="none" stroke="black" d="M182.412,-145.6C182.412,-151.6 176.412,-157.6 170.412,-157.6"/>
<polyline fill="none" stroke="black" points="170.412,-157.6 11.5879,-157.6 "/>
<path fill="none" stroke="black" d="M11.5879,-157.6C5.58789,-157.6 -0.412109,-151.6 -0.412109,-145.6"/>
<polyline fill="none" stroke="black" points="-0.412109,-145.6 -0.412109,-86.4 "/>
<path fill="none" stroke="black" d="M-0.412109,-86.4C-0.412109,-80.4 5.58789,-74.4 11.5879,-74.4"/>
<text text-anchor="middle" x="91" y="-139.6" font-family="Times,serif" font-size="14.00">Comment</text>
<polyline fill="none" stroke="black" points="-0.412109,-132.8 182.412,-132.8 "/>
<text text-anchor="start" x="7.58789" y="-114.8" font-family="Times,serif" font-size="14.00">_id :Moped::BSON::ObjectId</text>
<text text-anchor="start" x="7.58789" y="-98" font-family="Times,serif" font-size="14.00">_type :String</text>
<text text-anchor="start" x="7.58789" y="-81.2" font-family="Times,serif" font-size="14.00">content :String</text>
</g>
<!-- Comment&#45;&gt;Comment -->
<g id="edge2" class="edge"><title>Comment&#45;&gt;Comment</title>
<path fill="none" stroke="#27dbcf" d="M190.465,-123.767C196.425,-121.916 200,-119.327 200,-116 200,-113.035 197.16,-110.655 192.322,-108.863"/>
<ellipse fill="none" stroke="#27dbcf" cx="186.342" cy="-124.71" rx="4.00001" ry="4.00001"/>
<polygon fill="#27dbcf" stroke="#27dbcf" points="192.146,-108.819 183.532,-102.032 187.294,-107.609 182.443,-106.399 182.443,-106.399 182.443,-106.399 187.294,-107.609 181.354,-110.765 192.146,-108.819 192.146,-108.819"/>
</g>
<!-- Commentable -->
<g id="node13" class="node"><title>Commentable</title>
<ellipse fill="none" stroke="black" cx="91" cy="-18" rx="65.3163" ry="18"/>
<text text-anchor="middle" x="91" y="-12.4" font-family="Times,serif" font-size="14.00">Commentable</text>
</g>
<!-- Comment&#45;&gt;Commentable -->
<g id="edge4" class="edge"><title>Comment&#45;&gt;Commentable</title>
<path fill="none" stroke="#2b9f16" d="M91,-64.2449C91,-58.1181 91,-52.0514 91,-46.4457"/>
<polygon fill="#2b9f16" stroke="#2b9f16" points="91.0001,-64.2874 86.5,-74.2873 91,-69.2874 91,-74.2874 91,-74.2874 91,-74.2874 91,-69.2874 95.5,-74.2874 91.0001,-64.2874 91.0001,-64.2874"/>
<polygon fill="#2b9f16" stroke="#2b9f16" points="91.0001,-46.3397 95.5,-36.3397 91,-41.3397 91,-36.3397 91,-36.3397 91,-36.3397 91,-41.3397 86.5,-36.3397 91.0001,-46.3397 91.0001,-46.3397"/>
</g>
<!-- Cookware -->
<g id="node3" class="node"><title>Cookware</title>
<polyline fill="none" stroke="black" points="697.588,-229.4 856.412,-229.4 "/>
<path fill="none" stroke="black" d="M856.412,-229.4C862.412,-229.4 868.412,-235.4 868.412,-241.4"/>
<polyline fill="none" stroke="black" points="868.412,-241.4 868.412,-300.6 "/>
<path fill="none" stroke="black" d="M868.412,-300.6C868.412,-306.6 862.412,-312.6 856.412,-312.6"/>
<polyline fill="none" stroke="black" points="856.412,-312.6 697.588,-312.6 "/>
<path fill="none" stroke="black" d="M697.588,-312.6C691.588,-312.6 685.588,-306.6 685.588,-300.6"/>
<polyline fill="none" stroke="black" points="685.588,-300.6 685.588,-241.4 "/>
<path fill="none" stroke="black" d="M685.588,-241.4C685.588,-235.4 691.588,-229.4 697.588,-229.4"/>
<text text-anchor="middle" x="777" y="-294.6" font-family="Times,serif" font-size="14.00">Cookware</text>
<polyline fill="none" stroke="black" points="685.588,-287.8 868.412,-287.8 "/>
<text text-anchor="start" x="693.588" y="-269.8" font-family="Times,serif" font-size="14.00">_id :Moped::BSON::ObjectId</text>
<text text-anchor="start" x="693.588" y="-253" font-family="Times,serif" font-size="14.00">_type :String</text>
<text text-anchor="start" x="693.588" y="-236.2" font-family="Times,serif" font-size="14.00">name :String</text>
</g>
<!-- Ingredient -->
<g id="node4" class="node"><title>Ingredient</title>
<polyline fill="none" stroke="black" points="267.588,-74.4 426.412,-74.4 "/>
<path fill="none" stroke="black" d="M426.412,-74.4C432.412,-74.4 438.412,-80.4 438.412,-86.4"/>
<polyline fill="none" stroke="black" points="438.412,-86.4 438.412,-145.6 "/>
<path fill="none" stroke="black" d="M438.412,-145.6C438.412,-151.6 432.412,-157.6 426.412,-157.6"/>
<polyline fill="none" stroke="black" points="426.412,-157.6 267.588,-157.6 "/>
<path fill="none" stroke="black" d="M267.588,-157.6C261.588,-157.6 255.588,-151.6 255.588,-145.6"/>
<polyline fill="none" stroke="black" points="255.588,-145.6 255.588,-86.4 "/>
<path fill="none" stroke="black" d="M255.588,-86.4C255.588,-80.4 261.588,-74.4 267.588,-74.4"/>
<text text-anchor="middle" x="347" y="-139.6" font-family="Times,serif" font-size="14.00">Ingredient</text>
<polyline fill="none" stroke="black" points="255.588,-132.8 438.412,-132.8 "/>
<text text-anchor="start" x="263.588" y="-114.8" font-family="Times,serif" font-size="14.00">_id :Moped::BSON::ObjectId</text>
<text text-anchor="start" x="263.588" y="-98" font-family="Times,serif" font-size="14.00">_type :String</text>
<text text-anchor="start" x="263.588" y="-81.2" font-family="Times,serif" font-size="14.00">name :String</text>
</g>
<!-- Ingredient&#45;&gt;Ingredient -->
<g id="edge8" class="edge"><title>Ingredient&#45;&gt;Ingredient</title>
<path fill="none" stroke="#70900d" d="M446.465,-123.767C452.425,-121.916 456,-119.327 456,-116 456,-113.035 453.16,-110.655 448.322,-108.863"/>
<ellipse fill="none" stroke="#70900d" cx="442.342" cy="-124.71" rx="4.00001" ry="4.00001"/>
<polygon fill="#70900d" stroke="#70900d" points="448.146,-108.819 439.532,-102.032 443.294,-107.609 438.443,-106.399 438.443,-106.399 438.443,-106.399 443.294,-107.609 437.354,-110.765 448.146,-108.819 448.146,-108.819"/>
<text text-anchor="middle" x="485.559" y="-110.4" font-family="Times,serif" font-size="14.00">substitutes</text>
</g>
<!-- RecipeIngredient -->
<g id="node7" class="node"><title>RecipeIngredient</title>
<polyline fill="none" stroke="black" points="295.588,-212.6 454.412,-212.6 "/>
<path fill="none" stroke="black" d="M454.412,-212.6C460.412,-212.6 466.412,-218.6 466.412,-224.6"/>
<polyline fill="none" stroke="black" points="466.412,-224.6 466.412,-317.4 "/>
<path fill="none" stroke="black" d="M466.412,-317.4C466.412,-323.4 460.412,-329.4 454.412,-329.4"/>
<polyline fill="none" stroke="black" points="454.412,-329.4 295.588,-329.4 "/>
<path fill="none" stroke="black" d="M295.588,-329.4C289.588,-329.4 283.588,-323.4 283.588,-317.4"/>
<polyline fill="none" stroke="black" points="283.588,-317.4 283.588,-224.6 "/>
<path fill="none" stroke="black" d="M283.588,-224.6C283.588,-218.6 289.588,-212.6 295.588,-212.6"/>
<text text-anchor="middle" x="375" y="-311.4" font-family="Times,serif" font-size="14.00">RecipeIngredient</text>
<polyline fill="none" stroke="black" points="283.588,-304.6 466.412,-304.6 "/>
<text text-anchor="start" x="291.588" y="-286.6" font-family="Times,serif" font-size="14.00">_id :Moped::BSON::ObjectId</text>
<text text-anchor="start" x="291.588" y="-269.8" font-family="Times,serif" font-size="14.00">_type :String</text>
<text text-anchor="start" x="291.588" y="-253" font-family="Times,serif" font-size="14.00">amount :String</text>
<text text-anchor="start" x="291.588" y="-236.2" font-family="Times,serif" font-size="14.00">name :String</text>
<text text-anchor="start" x="291.588" y="-219.4" font-family="Times,serif" font-size="14.00">unit :String</text>
</g>
<!-- Ingredient&#45;&gt;RecipeIngredient -->
<g id="edge6" class="edge"><title>Ingredient&#45;&gt;RecipeIngredient</title>
<path fill="none" stroke="#373c00" d="M360.789,-165.793C361.59,-169.235 362.338,-172.662 363,-176 364.675,-184.442 366.167,-193.359 367.48,-202.204"/>
<ellipse fill="none" stroke="#373c00" cx="359.784" cy="-161.658" rx="4.00001" ry="4.00001"/>
<polygon fill="#373c00" stroke="#373c00" points="367.484,-202.23 364.432,-212.763 368.185,-207.18 368.887,-212.131 368.887,-212.131 368.887,-212.131 368.185,-207.18 373.342,-211.499 367.484,-202.23 367.484,-202.23"/>
<text text-anchor="middle" x="387.776" y="-179.4" font-family="Times,serif" font-size="14.00">used_in</text>
</g>
<!-- Profile -->
<g id="node5" class="node"><title>Profile</title>
<polyline fill="none" stroke="black" points="242.588,-1085.2 401.412,-1085.2 "/>
<path fill="none" stroke="black" d="M401.412,-1085.2C407.412,-1085.2 413.412,-1091.2 413.412,-1097.2"/>
<polyline fill="none" stroke="black" points="413.412,-1097.2 413.412,-1206.8 "/>
<path fill="none" stroke="black" d="M413.412,-1206.8C413.412,-1212.8 407.412,-1218.8 401.412,-1218.8"/>
<polyline fill="none" stroke="black" points="401.412,-1218.8 242.588,-1218.8 "/>
<path fill="none" stroke="black" d="M242.588,-1218.8C236.588,-1218.8 230.588,-1212.8 230.588,-1206.8"/>
<polyline fill="none" stroke="black" points="230.588,-1206.8 230.588,-1097.2 "/>
<path fill="none" stroke="black" d="M230.588,-1097.2C230.588,-1091.2 236.588,-1085.2 242.588,-1085.2"/>
<text text-anchor="middle" x="322" y="-1200.8" font-family="Times,serif" font-size="14.00">Profile</text>
<polyline fill="none" stroke="black" points="230.588,-1194 413.412,-1194 "/>
<text text-anchor="start" x="238.588" y="-1176" font-family="Times,serif" font-size="14.00">_id :Moped::BSON::ObjectId</text>
<text text-anchor="start" x="238.588" y="-1159.2" font-family="Times,serif" font-size="14.00">_type :String</text>
<text text-anchor="start" x="238.588" y="-1142.4" font-family="Times,serif" font-size="14.00">first_name :String</text>
<text text-anchor="start" x="238.588" y="-1125.6" font-family="Times,serif" font-size="14.00">last_name :String</text>
<text text-anchor="start" x="238.588" y="-1108.8" font-family="Times,serif" font-size="14.00">photo :String</text>
<text text-anchor="start" x="238.588" y="-1092" font-family="Times,serif" font-size="14.00">tagline :String</text>
</g>
<!-- Profile&#45;&gt;Comment -->
<g id="edge12" class="edge"><title>Profile&#45;&gt;Comment</title>
<path fill="none" stroke="#c28f4d" d="M225.573,-1080.19C149.1,-1020.3 55,-936.535 55,-887 55,-887 55,-887 55,-270 55,-235.064 64.0038,-196.805 73.0058,-167.285"/>
<ellipse fill="none" stroke="#c28f4d" cx="228.824" cy="-1082.73" rx="4.00002" ry="4.00002"/>
<polygon fill="#c28f4d" stroke="#c28f4d" points="73.0435,-167.165 80.338,-158.977 74.5445,-162.395 76.0455,-157.626 76.0455,-157.626 76.0455,-157.626 74.5445,-162.395 71.7531,-156.275 73.0435,-167.165 73.0435,-167.165"/>
</g>
<!-- User -->
<g id="node10" class="node"><title>User</title>
<polyline fill="none" stroke="black" points="241.292,-726.8 402.708,-726.8 "/>
<path fill="none" stroke="black" d="M402.708,-726.8C408.708,-726.8 414.708,-732.8 414.708,-738.8"/>
<polyline fill="none" stroke="black" points="414.708,-738.8 414.708,-1033.2 "/>
<path fill="none" stroke="black" d="M414.708,-1033.2C414.708,-1039.2 408.708,-1045.2 402.708,-1045.2"/>
<polyline fill="none" stroke="black" points="402.708,-1045.2 241.292,-1045.2 "/>
<path fill="none" stroke="black" d="M241.292,-1045.2C235.292,-1045.2 229.292,-1039.2 229.292,-1033.2"/>
<polyline fill="none" stroke="black" points="229.292,-1033.2 229.292,-738.8 "/>
<path fill="none" stroke="black" d="M229.292,-738.8C229.292,-732.8 235.292,-726.8 241.292,-726.8"/>
<text text-anchor="middle" x="322" y="-1027.2" font-family="Times,serif" font-size="14.00">User</text>
<polyline fill="none" stroke="black" points="229.292,-1020.4 414.708,-1020.4 "/>
<text text-anchor="start" x="237.292" y="-1002.4" font-family="Times,serif" font-size="14.00">_id :Moped::BSON::ObjectId</text>
<text text-anchor="start" x="237.292" y="-985.6" font-family="Times,serif" font-size="14.00">_type :String</text>
<text text-anchor="start" x="237.292" y="-968.8" font-family="Times,serif" font-size="14.00">admin :Boolean</text>
<text text-anchor="start" x="237.292" y="-952" font-family="Times,serif" font-size="14.00">current_sign_in_at :Time</text>
<text text-anchor="start" x="237.292" y="-935.2" font-family="Times,serif" font-size="14.00">current_sign_in_ip :String</text>
<text text-anchor="start" x="237.292" y="-918.4" font-family="Times,serif" font-size="14.00">email :String</text>
<text text-anchor="start" x="237.292" y="-901.6" font-family="Times,serif" font-size="14.00">encrypted_password :String</text>
<text text-anchor="start" x="237.292" y="-884.8" font-family="Times,serif" font-size="14.00">favorite_ids :Array</text>
<text text-anchor="start" x="237.292" y="-868" font-family="Times,serif" font-size="14.00">last_sign_in_at :Time</text>
<text text-anchor="start" x="237.292" y="-851.2" font-family="Times,serif" font-size="14.00">last_sign_in_ip :String</text>
<text text-anchor="start" x="237.292" y="-834.4" font-family="Times,serif" font-size="14.00">provider :String</text>
<text text-anchor="start" x="237.292" y="-817.6" font-family="Times,serif" font-size="14.00">remember_created_at :Time</text>
<text text-anchor="start" x="237.292" y="-800.8" font-family="Times,serif" font-size="14.00">reset_password_sent_at :Time</text>
<text text-anchor="start" x="237.292" y="-784" font-family="Times,serif" font-size="14.00">reset_password_token :String</text>
<text text-anchor="start" x="237.292" y="-767.2" font-family="Times,serif" font-size="14.00">sign_in_count :Integer</text>
<text text-anchor="start" x="237.292" y="-750.4" font-family="Times,serif" font-size="14.00">uid :String</text>
<text text-anchor="start" x="237.292" y="-733.6" font-family="Times,serif" font-size="14.00">username :String</text>
</g>
<!-- Profile&#45;&gt;User -->
<g id="edge10" class="edge"><title>Profile&#45;&gt;User</title>
<path fill="none" stroke="#db7335" d="M315.82,-1074.93C315.685,-1068.69 315.574,-1062.23 315.487,-1055.65"/>
<polygon fill="#db7335" stroke="#db7335" points="315.823,-1075.07 311.567,-1085.17 315.945,-1080.06 316.066,-1085.06 316.066,-1085.06 316.066,-1085.06 315.945,-1080.06 320.565,-1084.95 315.823,-1075.07 315.823,-1075.07"/>
<polygon fill="#db7335" stroke="#db7335" points="315.482,-1055.2 319.869,-1045.15 315.426,-1050.21 315.37,-1045.21 315.37,-1045.21 315.37,-1045.21 315.426,-1050.21 310.87,-1045.26 315.482,-1055.2 315.482,-1055.2"/>
</g>
<!-- Recipe -->
<g id="node6" class="node"><title>Recipe</title>
<polyline fill="none" stroke="black" points="295.588,-369.2 454.412,-369.2 "/>
<path fill="none" stroke="black" d="M454.412,-369.2C460.412,-369.2 466.412,-375.2 466.412,-381.2"/>
<polyline fill="none" stroke="black" points="466.412,-381.2 466.412,-658.8 "/>
<path fill="none" stroke="black" d="M466.412,-658.8C466.412,-664.8 460.412,-670.8 454.412,-670.8"/>
<polyline fill="none" stroke="black" points="454.412,-670.8 295.588,-670.8 "/>
<path fill="none" stroke="black" d="M295.588,-670.8C289.588,-670.8 283.588,-664.8 283.588,-658.8"/>
<polyline fill="none" stroke="black" points="283.588,-658.8 283.588,-381.2 "/>
<path fill="none" stroke="black" d="M283.588,-381.2C283.588,-375.2 289.588,-369.2 295.588,-369.2"/>
<text text-anchor="middle" x="375" y="-652.8" font-family="Times,serif" font-size="14.00">Recipe</text>
<polyline fill="none" stroke="black" points="283.588,-646 466.412,-646 "/>
<text text-anchor="start" x="291.588" y="-628" font-family="Times,serif" font-size="14.00">_id :Moped::BSON::ObjectId</text>
<text text-anchor="start" x="291.588" y="-611.2" font-family="Times,serif" font-size="14.00">_type :String</text>
<text text-anchor="start" x="291.588" y="-594.4" font-family="Times,serif" font-size="14.00">author_id :Object</text>
<text text-anchor="start" x="291.588" y="-577.6" font-family="Times,serif" font-size="14.00">cook_time :String</text>
<text text-anchor="start" x="291.588" y="-560.8" font-family="Times,serif" font-size="14.00">created_at :Time</text>
<text text-anchor="start" x="291.588" y="-544" font-family="Times,serif" font-size="14.00">description :String</text>
<text text-anchor="start" x="291.588" y="-527.2" font-family="Times,serif" font-size="14.00">favorited_ids :Array</text>
<text text-anchor="start" x="291.588" y="-510.4" font-family="Times,serif" font-size="14.00">name :String</text>
<text text-anchor="start" x="291.588" y="-493.6" font-family="Times,serif" font-size="14.00">parent_id :Object</text>
<text text-anchor="start" x="291.588" y="-476.8" font-family="Times,serif" font-size="14.00">photo :String</text>
<text text-anchor="start" x="291.588" y="-460" font-family="Times,serif" font-size="14.00">prep_time :String</text>
<text text-anchor="start" x="291.588" y="-443.2" font-family="Times,serif" font-size="14.00">published :Boolean</text>
<text text-anchor="start" x="291.588" y="-426.4" font-family="Times,serif" font-size="14.00">ready_in :String</text>
<text text-anchor="start" x="291.588" y="-409.6" font-family="Times,serif" font-size="14.00">serving_size :String</text>
<text text-anchor="start" x="291.588" y="-392.8" font-family="Times,serif" font-size="14.00">tag_ids :Array</text>
<text text-anchor="start" x="291.588" y="-376" font-family="Times,serif" font-size="14.00">updated_at :Time</text>
</g>
<!-- Recipe&#45;&gt;Cookware -->
<g id="edge18" class="edge"><title>Recipe&#45;&gt;Cookware</title>
<path fill="none" stroke="#3324dd" d="M473.526,-458.463C543.945,-415.195 637.273,-357.852 701.748,-318.237"/>
<ellipse fill="none" stroke="#3324dd" cx="469.88" cy="-460.703" rx="4.00002" ry="4.00002"/>
<polygon fill="#3324dd" stroke="#3324dd" points="702.129,-318.003 713.005,-316.602 706.389,-315.385 710.649,-312.768 710.649,-312.768 710.649,-312.768 706.389,-315.385 708.293,-308.934 702.129,-318.003 702.129,-318.003"/>
</g>
<!-- Recipe&#45;&gt;Recipe -->
<g id="edge20" class="edge"><title>Recipe&#45;&gt;Recipe</title>
<path fill="none" stroke="#e8cf72" d="M473.268,-543.007C479.944,-537.71 484,-530.041 484,-520 484,-510.778 480.579,-503.558 474.85,-498.338"/>
<ellipse fill="none" stroke="#e8cf72" cx="469.85" cy="-545.109" rx="4.00002" ry="4.00002"/>
<polygon fill="#e8cf72" stroke="#e8cf72" points="474.792,-498.3 468.92,-489.039 470.618,-495.548 466.443,-492.796 466.443,-492.796 466.443,-492.796 470.618,-495.548 463.966,-496.553 474.792,-498.3 474.792,-498.3"/>
<text text-anchor="middle" x="506.935" y="-514.4" font-family="Times,serif" font-size="14.00">children</text>
</g>
<!-- Recipe&#45;&gt;RecipeIngredient -->
<g id="edge14" class="edge"><title>Recipe&#45;&gt;RecipeIngredient</title>
<path fill="none" stroke="#5395e3" d="M368.492,-360.862C368.595,-353.665 368.73,-346.639 368.899,-339.892"/>
<ellipse fill="none" stroke="#5395e3" cx="368.441" cy="-364.912" rx="4" ry="4"/>
<polygon fill="#5395e3" stroke="#5395e3" points="368.909,-339.533 373.69,-329.664 369.05,-334.535 369.191,-329.537 369.191,-329.537 369.191,-329.537 369.05,-334.535 364.693,-329.41 368.909,-339.533 368.909,-339.533"/>
</g>
<!-- Step -->
<g id="node8" class="node"><title>Step</title>
<polyline fill="none" stroke="black" points="94.5879,-212.6 253.412,-212.6 "/>
<path fill="none" stroke="black" d="M253.412,-212.6C259.412,-212.6 265.412,-218.6 265.412,-224.6"/>
<polyline fill="none" stroke="black" points="265.412,-224.6 265.412,-317.4 "/>
<path fill="none" stroke="black" d="M265.412,-317.4C265.412,-323.4 259.412,-329.4 253.412,-329.4"/>
<polyline fill="none" stroke="black" points="253.412,-329.4 94.5879,-329.4 "/>
<path fill="none" stroke="black" d="M94.5879,-329.4C88.5879,-329.4 82.5879,-323.4 82.5879,-317.4"/>
<polyline fill="none" stroke="black" points="82.5879,-317.4 82.5879,-224.6 "/>
<path fill="none" stroke="black" d="M82.5879,-224.6C82.5879,-218.6 88.5879,-212.6 94.5879,-212.6"/>
<text text-anchor="middle" x="174" y="-311.4" font-family="Times,serif" font-size="14.00">Step</text>
<polyline fill="none" stroke="black" points="82.5879,-304.6 265.412,-304.6 "/>
<text text-anchor="start" x="90.5879" y="-286.6" font-family="Times,serif" font-size="14.00">_id :Moped::BSON::ObjectId</text>
<text text-anchor="start" x="90.5879" y="-269.8" font-family="Times,serif" font-size="14.00">_type :String</text>
<text text-anchor="start" x="90.5879" y="-253" font-family="Times,serif" font-size="14.00">description :String</text>
<text text-anchor="start" x="90.5879" y="-236.2" font-family="Times,serif" font-size="14.00">end_time :Integer</text>
<text text-anchor="start" x="90.5879" y="-219.4" font-family="Times,serif" font-size="14.00">start_time :Integer</text>
</g>
<!-- Recipe&#45;&gt;Step -->
<g id="edge16" class="edge"><title>Recipe&#45;&gt;Step</title>
<path fill="none" stroke="#975779" d="M278.243,-400.1C260.66,-378.493 242.924,-356.698 227.192,-337.366"/>
<ellipse fill="none" stroke="#975779" cx="280.798" cy="-403.24" rx="4.00002" ry="4.00002"/>
<polygon fill="#975779" stroke="#975779" points="227.121,-337.279 224.3,-326.682 223.965,-333.4 220.81,-329.522 220.81,-329.522 220.81,-329.522 223.965,-333.4 217.319,-332.363 227.121,-337.279 227.121,-337.279"/>
</g>
<!-- Tag -->
<g id="node9" class="node"><title>Tag</title>
<polyline fill="none" stroke="black" points="496.588,-221 655.412,-221 "/>
<path fill="none" stroke="black" d="M655.412,-221C661.412,-221 667.412,-227 667.412,-233"/>
<polyline fill="none" stroke="black" points="667.412,-233 667.412,-309 "/>
<path fill="none" stroke="black" d="M667.412,-309C667.412,-315 661.412,-321 655.412,-321"/>
<polyline fill="none" stroke="black" points="655.412,-321 496.588,-321 "/>
<path fill="none" stroke="black" d="M496.588,-321C490.588,-321 484.588,-315 484.588,-309"/>
<polyline fill="none" stroke="black" points="484.588,-309 484.588,-233 "/>
<path fill="none" stroke="black" d="M484.588,-233C484.588,-227 490.588,-221 496.588,-221"/>
<text text-anchor="middle" x="576" y="-303" font-family="Times,serif" font-size="14.00">Tag</text>
<polyline fill="none" stroke="black" points="484.588,-296.2 667.412,-296.2 "/>
<text text-anchor="start" x="492.588" y="-278.2" font-family="Times,serif" font-size="14.00">_id :Moped::BSON::ObjectId</text>
<text text-anchor="start" x="492.588" y="-261.4" font-family="Times,serif" font-size="14.00">_type :String</text>
<text text-anchor="start" x="492.588" y="-244.6" font-family="Times,serif" font-size="14.00">name :String</text>
<text text-anchor="start" x="492.588" y="-227.8" font-family="Times,serif" font-size="14.00">recipe_ids :Array</text>
</g>
<!-- Recipe&#45;&gt;Tag -->
<g id="edge24" class="edge"><title>Recipe&#45;&gt;Tag</title>
<path fill="none" stroke="#518830" d="M473.248,-398.268C492.948,-374.059 512.763,-349.709 529.665,-328.94"/>
<polygon fill="#518830" stroke="#518830" points="472.989,-398.586 463.187,-403.502 469.833,-402.464 466.677,-406.342 466.677,-406.342 466.677,-406.342 469.833,-402.464 470.167,-409.182 472.989,-398.586 472.989,-398.586"/>
<polygon fill="#518830" stroke="#518830" points="529.681,-328.919 539.483,-324.003 532.837,-325.041 535.993,-321.163 535.993,-321.163 535.993,-321.163 532.837,-325.041 532.503,-318.322 529.681,-328.919 529.681,-328.919"/>
</g>
<!-- Recipe&#45;&gt;User -->
<g id="edge22" class="edge"><title>Recipe&#45;&gt;User</title>
<path fill="none" stroke="#5149e7" d="M392.404,-680.902C391.718,-690.095 390.613,-699.181 389,-708 388.473,-710.879 387.902,-713.771 387.291,-716.673"/>
<polygon fill="#5149e7" stroke="#5149e7" points="392.405,-680.875 397.48,-671.154 392.696,-675.883 392.988,-670.892 392.988,-670.892 392.988,-670.892 392.696,-675.883 388.496,-670.63 392.405,-680.875 392.405,-680.875"/>
<polygon fill="#5149e7" stroke="#5149e7" points="387.259,-716.815 380.669,-725.58 386.159,-721.692 385.059,-726.57 385.059,-726.57 385.059,-726.57 386.159,-721.692 389.449,-727.56 387.259,-716.815 387.259,-716.815"/>
<text text-anchor="middle" x="416.266" y="-693.4" font-family="Times,serif" font-size="14.00">favorited</text>
</g>
<!-- RecipeIngredient&#45;&gt;Ingredient -->
<g id="edge28" class="edge"><title>RecipeIngredient&#45;&gt;Ingredient</title>
<path fill="none" stroke="#105fc0" d="M277.08,-211.712C269.14,-205.321 263.077,-199.242 260.262,-194 254.435,-183.151 256.342,-173.091 262.621,-164.063"/>
<ellipse fill="none" stroke="#105fc0" cx="280.325" cy="-214.212" rx="4.00002" ry="4.00002"/>
<ellipse fill="#105fc0" stroke="#105fc0" cx="265.364" cy="-160.754" rx="4.00002" ry="4.00002"/>
<text text-anchor="middle" x="309.369" y="-179.4" font-family="Times,serif" font-size="14.00">parent_ingredient</text>
</g>
<!-- RecipeIngredient&#45;&gt;Recipe -->
<g id="edge26" class="edge"><title>RecipeIngredient&#45;&gt;Recipe</title>
<path fill="none" stroke="#306fed" d="M381.094,-339.621C381.248,-345.752 381.375,-352.117 381.475,-358.632"/>
<polygon fill="#306fed" stroke="#306fed" points="381.092,-339.533 385.307,-329.409 380.95,-334.535 380.809,-329.537 380.809,-329.537 380.809,-329.537 380.95,-334.535 376.31,-329.664 381.092,-339.533 381.092,-339.533"/>
<polygon fill="#306fed" stroke="#306fed" points="381.479,-358.913 377.109,-368.971 381.544,-363.912 381.609,-368.912 381.609,-368.912 381.609,-368.912 381.544,-363.912 386.109,-368.853 381.479,-358.913 381.479,-358.913"/>
</g>
<!-- Step&#45;&gt;Comment -->
<g id="edge30" class="edge"><title>Step&#45;&gt;Comment</title>
<path fill="none" stroke="#3fe966" d="M138.897,-205.293C131.972,-192.526 124.803,-179.311 118.187,-167.115"/>
<ellipse fill="none" stroke="#3fe966" cx="140.95" cy="-209.077" rx="4.00002" ry="4.00002"/>
<polygon fill="#3fe966" stroke="#3fe966" points="118.017,-166.802 117.204,-155.866 115.633,-162.407 113.248,-158.012 113.248,-158.012 113.248,-158.012 115.633,-162.407 109.293,-160.158 118.017,-166.802 118.017,-166.802"/>
</g>
<!-- User&#45;&gt;Profile -->
<g id="edge32" class="edge"><title>User&#45;&gt;Profile</title>
<path fill="none" stroke="#16cc72" d="M328.542,-1053.38C328.442,-1061.5 328.305,-1069.44 328.133,-1077.05"/>
<ellipse fill="none" stroke="#16cc72" cx="328.587" cy="-1049.21" rx="4" ry="4"/>
<ellipse fill="#16cc72" stroke="#16cc72" cx="328.033" cy="-1081.06" rx="4" ry="4"/>
</g>
<!-- User&#45;&gt;Recipe -->
<g id="edge38" class="edge"><title>User&#45;&gt;Recipe</title>
<path fill="none" stroke="#f094e9" d="M332.465,-716.542C333.537,-707.549 334.719,-698.657 336.021,-690 336.476,-686.971 336.957,-683.916 337.46,-680.842"/>
<polygon fill="#f094e9" stroke="#f094e9" points="332.436,-716.794 326.828,-726.218 331.868,-721.761 331.299,-726.729 331.299,-726.729 331.299,-726.729 331.868,-721.761 335.77,-727.24 332.436,-716.794 332.436,-716.794"/>
<polygon fill="#f094e9" stroke="#f094e9" points="337.463,-680.826 343.577,-671.723 338.302,-675.897 339.141,-670.967 339.141,-670.967 339.141,-670.967 338.302,-675.897 334.705,-670.212 337.463,-680.826 337.463,-680.826"/>
<text text-anchor="middle" x="360.49" y="-693.4" font-family="Times,serif" font-size="14.00">favorites</text>
</g>
<!-- User&#45;&gt;Recipe -->
<g id="edge40" class="edge"><title>User&#45;&gt;Recipe</title>
<path fill="none" stroke="#7278e0" d="M325.404,-718.525C326.4,-708.853 327.588,-699.289 329,-690 329.465,-686.942 329.965,-683.86 330.498,-680.762"/>
<ellipse fill="none" stroke="#7278e0" cx="324.999" cy="-722.69" rx="4" ry="4"/>
<polygon fill="#7278e0" stroke="#7278e0" points="330.517,-680.654 336.731,-671.619 331.41,-675.735 332.303,-670.815 332.303,-670.815 332.303,-670.815 331.41,-675.735 327.876,-670.011 330.517,-680.654 330.517,-680.654"/>
</g>
<!-- User&#45;&gt;User -->
<g id="edge34" class="edge"><title>User&#45;&gt;User</title>
<path fill="none" stroke="#5fb2cc" d="M422.829,-897.311C428.573,-894.58 432,-890.81 432,-886 432,-881.713 429.277,-878.251 424.619,-875.616"/>
<ellipse fill="none" stroke="#5fb2cc" cx="418.863" cy="-898.709" rx="4.00001" ry="4.00001"/>
<polygon fill="#5fb2cc" stroke="#5fb2cc" points="424.427,-875.543 416.702,-867.76 419.758,-873.752 415.09,-871.962 415.09,-871.962 415.09,-871.962 419.758,-873.752 413.478,-876.163 424.427,-875.543 424.427,-875.543"/>
<text text-anchor="middle" x="458.438" y="-880.4" font-family="Times,serif" font-size="14.00">followers</text>
</g>
<!-- User&#45;&gt;User -->
<g id="edge36" class="edge"><title>User&#45;&gt;User</title>
<path fill="none" stroke="#7b43ed" d="M423.074,-919.335C456.858,-918.596 484.876,-907.484 484.876,-886 484.876,-864.97 458.028,-853.878 425.204,-852.725"/>
<ellipse fill="none" stroke="#7b43ed" cx="418.849" cy="-919.324" rx="4" ry="4"/>
<polygon fill="#7b43ed" stroke="#7b43ed" points="424.849,-852.724 414.866,-848.187 419.849,-852.705 414.849,-852.687 414.849,-852.687 414.849,-852.687 419.849,-852.705 414.832,-857.187 424.849,-852.724 424.849,-852.724"/>
<text text-anchor="middle" x="512.097" y="-880.4" font-family="Times,serif" font-size="14.00">following</text>
</g>
</g>
</svg>
